# xmcd
# Track frame offsets:
# 150
# 14093
# 26250
# 42332
# 55187
# 65703
# 80991
# 92885
# 106688
# 120503
#
# Disc length: 1825 seconds
# Revision: 0
# Processed by: cddbd v1.4PL0 Copyright (c) Steve Scherf et al.
# Submitted via: VisiTrax 2.9.5.180 - For more info visit www.synapsa.com
#
DISCID=82071f0a
DTITLE=Danielle Reddin - Danielle Reddin
DYEAR=1999
DGENRE=
TTITLE0=Don't come cryin' to me
TTITLE1=Monkey business
TTITLE2=Life after love
TTITLE3=You're walkin' and talkin' in my sleep again
TTITLE4=It's not easy being me
TTITLE5=Tell me something I don't know
TTITLE6=No more lies
TTITLE7=Close my eyes
TTITLE8=End of my dreams
TTITLE9=I'm outta here
EXTD=
EXTT0=
EXTT1=
EXTT2=
EXTT3=
EXTT4=
EXTT5=
EXTT6=
EXTT7=
EXTT8=
EXTT9=
PLAYORDER=
